<?xml version="1.0" standalone="no"?><!DOCTYPE svg PUBLIC "-//W3C//DTD SVG 1.1//EN" "http://www.w3.org/Graphics/SVG/1.1/DTD/svg11.dtd"><svg t="1780988734601" class="icon" viewBox="0 0 1024 1024" version="1.1" xmlns="http://www.w3.org/2000/svg" p-id="6154" xmlns:xlink="http://www.w3.org/1999/xlink" width="200" height="200"><path d="M418.762332 767.839498v-417.304075a23.112226 23.112226 0 0 0-46.545455 0v417.304075a23.112226 23.112226 0 1 0 46.545455 0zM814.238194 930.909091a46.545455 46.545455 0 0 1-46.545455 46.545454H255.692739A46.545455 46.545455 0 0 1 209.147285 930.909091V348.930408a21.828213 21.828213 0 0 0-23.112226-23.112226 21.828213 21.828213 0 0 0-23.112226 23.112226V930.909091a93.411912 93.411912 0 0 0 93.09091 93.090909h511.678996a93.411912 93.411912 0 0 0 93.090909-93.090909V348.930408a23.112226 23.112226 0 0 0-46.545454 0z m139.636364-744.727273H791.125968V93.090909A93.411912 93.411912 0 0 0 698.035059 0H325.671423a93.411912 93.411912 0 0 0-93.090909 93.090909v93.090909H69.510921a21.828213 21.828213 0 0 0-23.112225 23.112226 21.828213 21.828213 0 0 0 23.112225 23.112226h884.363637a21.828213 21.828213 0 0 0 23.433228-23.112226 21.828213 21.828213 0 0 0-23.112225-23.112226z m-209.294044 0H279.125968V93.090909A46.545455 46.545455 0 0 1 325.671423 46.545455h372.363636a46.545455 46.545455 0 0 1 46.545455 46.545454z m-93.090909 581.65768v-417.304075a23.112226 23.112226 0 0 0-46.545455 0v417.304075a23.112226 23.112226 0 1 0 46.545455 0z m0 0" fill="" p-id="6155"></path></svg>